<svg version="1.1" id="Layer_1" xmlns="http://www.w3.org/2000/svg" xmlns:xlink="http://www.w3.org/1999/xlink" x="0px" y="0px"
	 width="100%" viewBox="0 0 99 97" enable-background="new 0 0 99 97" xml:space="preserve">
<path fill="#F7F8F7" opacity="1.000000" stroke="none" 
	d="
M61.000000,98.000000 
	C40.666672,98.000000 20.833340,98.000000 1.000008,98.000000 
	C1.000005,65.666679 1.000005,33.333351 1.000003,1.000021 
	C33.999985,1.000014 66.999969,1.000014 99.999969,1.000007 
	C99.999977,33.333313 99.999977,65.666626 99.999985,97.999969 
	C87.166664,98.000000 74.333336,98.000000 61.000000,98.000000 
M93.158226,55.500053 
	C93.158226,39.395737 93.158226,23.291420 93.158226,7.180914 
	C63.784443,7.180914 34.920467,7.180914 6.197922,7.180914 
	C6.197922,35.749233 6.197922,63.970318 6.197922,92.220688 
	C35.327053,92.220688 64.081520,92.220688 93.158249,92.220688 
	C93.158249,80.126656 93.158249,68.313354 93.158226,55.500053 
z"/>
<path fill="#070707" opacity="1.000000" stroke="none" 
	d="
M93.158234,56.000057 
	C93.158249,68.313354 93.158249,80.126656 93.158249,92.220688 
	C64.081520,92.220688 35.327053,92.220688 6.197922,92.220688 
	C6.197922,63.970318 6.197922,35.749233 6.197922,7.180914 
	C34.920467,7.180914 63.784443,7.180914 93.158226,7.180914 
	C93.158226,23.291420 93.158226,39.395737 93.158234,56.000057 
M84.864914,45.742058 
	C81.203430,24.582947 63.436344,11.194962 43.024418,14.214107 
	C25.644228,16.784824 10.875879,33.931091 12.760816,49.419624 
	C20.171106,49.419624 27.585463,49.419624 35.595497,49.419624 
	C35.595497,40.760899 35.595497,32.373577 35.595497,24.025684 
	C40.432930,24.025684 44.662991,24.025684 49.158733,24.025684 
	C49.158733,31.979298 49.158733,39.622173 49.158733,47.265049 
	C49.158733,54.858608 49.158733,62.452168 49.158733,69.994690 
	C52.921066,69.994690 56.021202,69.994690 59.644974,69.994690 
	C59.644974,63.157600 59.644974,56.590351 59.644974,49.710201 
	C67.302887,49.710201 74.433701,49.671238 81.563637,49.733223 
	C83.790459,49.752579 85.732094,49.737835 84.864914,45.742058 
M46.990070,53.499939 
	C46.990070,45.222748 46.990070,36.945557 46.990070,28.770622 
	C43.674194,28.770622 40.906399,28.770622 37.672539,28.770622 
	C37.672539,36.590599 37.672539,44.164799 37.672539,52.112579 
	C28.952633,52.112579 20.703653,52.112579 12.430867,52.112579 
	C14.182418,72.789444 30.817846,87.275146 51.017441,86.076630 
	C69.303215,84.991661 85.207542,69.051598 84.596260,52.404583 
	C77.050858,52.404583 69.505463,52.404583 61.525299,52.404583 
	C61.525299,60.383781 61.525299,67.983719 61.525299,75.636581 
	C56.509281,75.636581 51.940163,75.636581 46.989967,75.636581 
	C46.989967,68.414055 46.989967,61.456955 46.990070,53.499939 
z"/>
<path fill="#F6F6F6" opacity="1.000000" stroke="none" 
	d="
M84.893166,46.177650 
	C85.732094,49.737835 83.790459,49.752579 81.563637,49.733223 
	C74.433701,49.671238 67.302887,49.710201 59.644974,49.710201 
	C59.644974,56.590351 59.644974,63.157600 59.644974,69.994690 
	C56.021202,69.994690 52.921066,69.994690 49.158733,69.994690 
	C49.158733,62.452168 49.158733,54.858608 49.158733,47.265049 
	C49.158733,39.622173 49.158733,31.979298 49.158733,24.025684 
	C44.662991,24.025684 40.432930,24.025684 35.595497,24.025684 
	C35.595497,32.373577 35.595497,40.760899 35.595497,49.419624 
	C27.585463,49.419624 20.171106,49.419624 12.760816,49.419624 
	C10.875879,33.931091 25.644228,16.784824 43.024418,14.214107 
	C63.436344,11.194962 81.203430,24.582947 84.893166,46.177650 
z"/>
<path fill="#FBFBFA" opacity="1.000000" stroke="none" 
	d="
M46.990021,53.999897 
	C46.989967,61.456955 46.989967,68.414055 46.989967,75.636581 
	C51.940163,75.636581 56.509281,75.636581 61.525299,75.636581 
	C61.525299,67.983719 61.525299,60.383781 61.525299,52.404583 
	C69.505463,52.404583 77.050858,52.404583 84.599236,52.410480 
	C85.207542,69.051598 69.303215,84.991661 51.017441,86.076630 
	C30.817846,87.275146 14.182418,72.789444 12.430867,52.112579 
	C20.703653,52.112579 28.952633,52.112579 37.672539,52.112579 
	C37.672539,44.164799 37.672539,36.590599 37.672539,28.770622 
	C40.906399,28.770622 43.674194,28.770622 46.990070,28.770622 
	C46.990070,36.945557 46.990070,45.222748 46.990021,53.999897 
z"/>
</svg>